<svg width="30" height="30" viewBox="0 0 30 30" fill="none" xmlns="http://www.w3.org/2000/svg">
<g id="Heart">
<path id="Union" fill-rule="evenodd" clip-rule="evenodd" d="M13.7084 25.3833C14.0834 25.675 14.525 25.8333 15 25.8333C15.475 25.8333 15.925 25.675 16.275 25.4C16.3334 25.3583 22.325 20.775 24.7667 17C25.5667 15.7583 26.6667 14.05 26.6667 11.6167C26.6667 7.50832 23.5584 4.16666 19.7417 4.16666C17.9667 4.16666 16.2834 4.89166 15 6.19166C13.725 4.90832 12.0167 4.16666 10.2584 4.16666C6.44171 4.16666 3.33337 7.50832 3.33337 11.6167C3.33337 14.05 4.43337 15.7583 5.23337 17C7.63337 20.75 13.6667 25.3583 13.7084 25.3917V25.3833ZM5.00004 11.6167C5.00004 8.42499 7.35837 5.83332 10.2584 5.83332C11.8417 5.83332 13.3334 6.60832 14.3334 7.95832C14.4917 8.16666 14.7417 8.29166 15 8.29999C15.2584 8.29999 15.5084 8.17499 15.6667 7.96666C16.6834 6.60832 18.1667 5.83332 19.7417 5.83332C22.6417 5.83332 25 8.42499 25 11.6167C25 13.5583 24.0917 14.9667 23.3667 16.1C21.1167 19.5833 15.3417 24.025 15.2584 24.0833C15.1084 24.2 14.9084 24.2167 14.7167 24.0667C14.6584 24.025 8.88337 19.6083 6.63337 16.1C5.90837 14.975 5.00004 13.5667 5.00004 11.6167Z" fill="white"/>
</g>
</svg>
