<svg width="18" height="18" viewBox="0 0 18 18" fill="none" xmlns="http://www.w3.org/2000/svg">
<g id="Headphones">
<g id="Union">
<path fill-rule="evenodd" clip-rule="evenodd" d="M14.6967 11.2304C14.9514 11.3372 15.0713 11.6302 14.9645 11.8849C14.2256 13.6474 12.6333 14.967 10.7042 15.3232C10.4326 15.3734 10.1718 15.1939 10.1217 14.9223C10.0715 14.6508 10.251 14.39 10.5226 14.3398C12.1135 14.0461 13.4312 12.9557 14.0423 11.4982C14.149 11.2435 14.442 11.1237 14.6967 11.2304Z" fill="white"/>
<path fill-rule="evenodd" clip-rule="evenodd" d="M8.99895 2.5C6.51914 2.5 4.42577 4.17014 3.77997 6.44647C3.70461 6.71212 3.42815 6.86638 3.16249 6.79102C2.89683 6.71565 2.74257 6.43919 2.81794 6.17353C3.58214 3.47986 6.05877 1.5 8.99895 1.5C11.9387 1.5 14.4158 3.47445 15.18 6.17379C15.2553 6.43949 15.1009 6.71586 14.8352 6.79109C14.5695 6.86632 14.2931 6.71191 14.2179 6.44621C13.5721 4.16555 11.4792 2.5 8.99895 2.5Z" fill="white"/>
<path fill-rule="evenodd" clip-rule="evenodd" d="M3.2 6.82422C2.8134 6.82422 2.5 7.13762 2.5 7.52422V10.4892C2.5 10.8758 2.8134 11.1892 3.2 11.1892H3.48999C3.8766 11.1892 4.19 10.8758 4.19 10.4892V7.52422C4.19 7.13763 3.8766 6.82422 3.48999 6.82422H3.2ZM1.5 7.52422C1.5 6.58534 2.26111 5.82422 3.2 5.82422H3.48999C4.42887 5.82422 5.19 6.58533 5.19 7.52422V10.4892C5.19 11.4281 4.42887 12.1892 3.48999 12.1892H3.2C2.26111 12.1892 1.5 11.4281 1.5 10.4892V7.52422Z" fill="white"/>
<path fill-rule="evenodd" clip-rule="evenodd" d="M14.5047 6.82422C14.1181 6.82422 13.8047 7.13763 13.8047 7.52422V10.4892C13.8047 10.8758 14.1181 11.1892 14.5047 11.1892H14.7947C15.1813 11.1892 15.4947 10.8758 15.4947 10.4892V7.52422C15.4947 7.13762 15.1813 6.82422 14.7947 6.82422H14.5047ZM12.8047 7.52422C12.8047 6.58533 13.5658 5.82422 14.5047 5.82422H14.7947C15.7336 5.82422 16.4947 6.58534 16.4947 7.52422V10.4892C16.4947 11.4281 15.7336 12.1892 14.7947 12.1892H14.5047C13.5658 12.1892 12.8047 11.4281 12.8047 10.4892V7.52422Z" fill="white"/>
<path fill-rule="evenodd" clip-rule="evenodd" d="M10.1094 14.9187C10.1094 14.6012 9.85194 14.3438 9.53438 14.3438H8.45438C8.13681 14.3438 7.87938 14.6012 7.87938 14.9187V14.9238C7.87938 15.2413 8.13681 15.4987 8.45438 15.4987H9.53438C9.85194 15.4987 10.1094 15.2413 10.1094 14.9238V14.9187ZM9.53438 13.3438C10.4042 13.3438 11.1094 14.0489 11.1094 14.9187V14.9238C11.1094 15.7936 10.4042 16.4987 9.53438 16.4987H8.45438C7.58453 16.4987 6.87938 15.7936 6.87938 14.9238V14.9187C6.87938 14.0489 7.58453 13.3438 8.45438 13.3438H9.53438Z" fill="white"/>
</g>
</g>
</svg>
