<?xml version="1.0" encoding="UTF-8" standalone="no"?><!DOCTYPE svg PUBLIC "-//W3C//DTD SVG 1.1//EN" "http://www.w3.org/Graphics/SVG/1.1/DTD/svg11.dtd"><svg width="100%" height="100%" viewBox="0 0 30 30" version="1.1" xmlns="http://www.w3.org/2000/svg" xmlns:xlink="http://www.w3.org/1999/xlink" xml:space="preserve" xmlns:serif="http://www.serif.com/" style="fill-rule:evenodd;clip-rule:evenodd;stroke-linejoin:round;stroke-miterlimit:2;"><path d="M8.361,10.506l-0,-0.006c-0.002,0.002 -0.004,0.004 -0.006,0.005l0,0c-0.002,0.002 -0.004,0.003 -0.006,0.005c0.004,-0.001 0.008,-0.002 0.012,-0.004Zm6.272,8.687c-0.367,0.367 -0.841,0.303 -0.841,0.303l-1.155,-0l0,-5.274c0,-0.533 -0.161,-0.921 -0.483,-1.166c-0.322,-0.244 -0.682,-0.367 -1.082,-0.367c-0.4,0 -0.755,0.123 -1.066,0.367c-0.311,0.245 -0.466,0.633 -0.466,1.166l-0,4.065c-0,0 -0.001,0.54 -0.357,0.896c-0.356,0.356 -0.917,0.313 -0.917,0.313l-1.057,0l-0,-5.067c-0,-1.51 0.394,-2.52 1.182,-3.031c0.788,-0.511 1.66,-0.788 2.615,-0.833c0.511,0 1.01,0.056 1.499,0.167c0.488,0.111 0.933,0.333 1.333,0.666c0.333,-0.288 0.727,-0.494 1.182,-0.617c0.455,-0.122 0.927,-0.194 1.415,-0.216c0.978,0 1.877,0.256 2.698,0.766c0.821,0.511 1.233,1.544 1.233,3.098l-0,5.067l-1.165,-0c-0.334,-0 -0.606,-0.106 -0.817,-0.317c-0.211,-0.21 -0.316,-0.483 -0.316,-0.816l-0,-4.141c-0,-0.533 -0.162,-0.921 -0.483,-1.166c-0.323,-0.244 -0.683,-0.367 -1.083,-0.367c-0.4,0 -0.761,0.123 -1.083,0.367c-0.322,0.245 -0.483,0.632 -0.483,1.166l0,4.086c0,0 0.065,0.518 -0.302,0.885l-0.001,0Zm-6.782,-8.463c-0.166,0.084 -0.328,0.177 -0.487,0.279l-0,-0c-0.604,0.392 -0.976,1.078 -1.117,2.056l-0.306,0.004c-0.657,0 -1.144,0.154 -1.46,0.46c-0.317,0.307 -0.475,0.788 -0.475,1.445l-0,3.053c-0,0 0.127,0.615 -0.294,1.036c-0.42,0.422 -1.1,0.409 -1.1,0.409l-1.113,0l0,-4.235c0,-0.853 0.13,-1.57 0.391,-2.151c0.26,-0.579 0.616,-1.045 1.069,-1.395c0.43,-0.328 0.934,-0.569 1.512,-0.722c0.577,-0.153 1.171,-0.23 1.782,-0.23l1.518,-0c0.015,-0 0.044,-0.003 0.08,-0.009Zm16.148,0.808l1.039,0c0.573,0 1.038,0.465 1.038,1.039l0,1.385l2.425,-0l-0,1.038c-0,0.574 -0.465,1.039 -1.039,1.039l-1.386,-0l0,2.423l-1.038,-0c-0.574,-0 -1.039,-0.465 -1.039,-1.039l0,-1.384l-2.422,-0l0,-1.039c0,-0.573 0.465,-1.038 1.039,-1.038l1.383,-0l0,-2.424Z" style="fill:#fff;"/></svg>