<?xml version="1.0" encoding="UTF-8"?>
<svg id="Layer_2" data-name="Layer 2" xmlns="http://www.w3.org/2000/svg" xmlns:xlink="http://www.w3.org/1999/xlink" viewBox="0 0 120 43">
  <defs>
    <mask id="mask" x="0" y="8.34" width="120" height="26.31" maskUnits="userSpaceOnUse">
      <g id="mask0_567_29736" data-name="mask0 567 29736">
        <path d="m44.31,25.07c-.37,2.61-2.62,4.62-5.34,4.62-2.98,0-5.4-2.41-5.4-5.38s2.42-5.38,5.4-5.38c2.72,0,4.97,2.01,5.34,4.63v-1.05c0-5.9,3.11-8.29,4.69-9.2,0-1.2,0-2.32,0-2.71,0-1.11-1.54-2.18-2.26-2.18h-3.08v7.29c-1.42-.79-3.05-1.25-4.79-1.25-4.07,0-7.55,2.47-9.02,6-2.16-4.17-5.96-6.94-11.27-5.67-1.21.29-2.37.76-3.4,1.41l.03-2.16c-.43.41-1.16.53-1.31.53h-3.36c-1.35,0-2.67.17-3.95.51-1.28.34-2.4.87-3.35,1.6-1,.77-1.79,1.8-2.37,3.08-.58,1.28-.87,2.86-.87,4.75v9.35h2.46s1.51.03,2.44-.9c.93-.93.65-2.29.65-2.29v-6.74c0-1.45.35-2.51,1.05-3.19.7-.68,1.78-1.02,3.23-1.02l2.1-.03c-1.2,2.4-1.28,5.6.61,9.51,1.63,3.38,5.8,4.65,8.46,4.61,4.57-.06,7.32-3.18,7.32-3.18,0,0-1.36-1.54-2.91-1.75-.82-.11-1.48.13-2.18.39-.62.23-1.26.47-2.06.47-2.69,0-3.8-1.75-3.8-1.75l11.76-2.76c.51,4.91,4.67,8.74,9.72,8.74,2.02,0,3.89-.61,5.45-1.65v-7.23Zm51.24,8.78v-9.35c0-1.88.29-3.47.87-4.75.58-1.28,1.37-2.31,2.37-3.08.95-.73,2.07-1.26,3.35-1.6,1.28-.34,2.6-.51,3.95-.51h3.36c.15,0,.88-.12,1.31-.53l-.04,3.13s-.28,1.22-.93,1.86c-.65.64-1.87.65-1.87.65l-2.52.04c-1.46,0-2.53.34-3.23,1.02-.7.68-1.05,1.74-1.05,3.19v6.74s.28,1.36-.65,2.29c-.93.93-2.44.9-2.44.9h-2.46ZM19.5,18.9c5.21-1.53,6.6,3.25,6.6,3.25l-10.04,2.36s-.83-4.36,3.44-5.61Zm42.02,15.01s1.05.14,1.87-.67c.81-.81.67-1.95.67-1.95v-9.03c0-1.18.36-2.03,1.07-2.57.71-.54,1.51-.81,2.4-.81s1.68.27,2.4.81c.71.54,1.07,1.4,1.07,2.57v9.15c0,.74.23,1.34.7,1.8.47.47,1.07.7,1.81.7h2.58v-11.19c0-3.43-.91-5.71-2.73-6.84-1.82-1.13-3.81-1.69-5.98-1.69-1.08.05-2.13.21-3.14.48-1.01.27-1.88.72-2.62,1.36-.89-.74-1.87-1.23-2.95-1.47-1.08-.24-2.19-.37-3.32-.37-2.12.1-4.05.71-5.79,1.84-1.75,1.13-2.62,3.36-2.62,6.69v11.19h2.34s1.24.1,2.03-.69c.79-.79.79-1.98.79-1.98v-8.98c0-1.18.34-2.03,1.03-2.57.69-.54,1.48-.81,2.36-.81s1.68.27,2.4.81c.71.54,1.07,1.4,1.07,2.57v11.65h2.56Zm27.97-9.54c-.71.34-1.69.65-2.95.93l-1.74.36c-.91.24-1.56.55-1.96.93-.35.53-.53,1.05-.53,1.58,0,.72.23,1.29.68,1.72.45.38,1.11.57,1.96.57,1.41,0,2.52-.38,3.32-1.15.81-.77,1.21-1.82,1.21-3.16v-1.8Zm1.21,8.83c-1.06.53-2.18.85-3.36.97-1.18.12-2.23.18-3.14.18-1.81,0-3.4-.47-4.76-1.4-1.36-.93-2.04-2.48-2.04-4.63,0-2.01.62-3.45,1.85-4.31,1.23-.86,2.81-1.44,4.72-1.72.25,0,.55-.04.91-.11.35-.07.76-.13,1.21-.18,2.22-.29,3.32-.91,3.32-1.87,0-.72-.39-1.19-1.17-1.4-.78-.22-1.5-.32-2.15-.32-.71,0-1.33.1-1.89.29-.56.19-.96.55-1.21,1.08h-5.06c.2-1.48.91-2.7,2.12-3.66,1.36-1.1,3.3-1.65,5.82-1.65,2.82,0,4.94.46,6.34,1.36,1.46.96,2.19,2.3,2.19,4.02v6.54c0,1.92-.37,3.41-1.1,4.49-.73,1.08-1.6,1.86-2.61,2.33Zm23.95.88c1.92.15,3.71.17,5.35.07v-3.88h-1.57c-1,0-1.5-.42-1.5-1.27v-9.83s1.64-.24,2.26-1c.43-.53.81-2.01.81-2.76v-1.04h-3.07v-3.36c0-.7-.25-1.29-.75-1.79-.5-.5-1.07-.75-1.72-.75h-2.7v21.95c0,2.29.96,3.51,2.88,3.66Z" style="fill: #fff; fill-rule: evenodd;"/>
      </g>
    </mask>
  </defs>
  <g style="mask: url(#mask);">
    <g id="rm">
      <rect y="8.34" width="120" height="26.31" style="fill: #fff;"/>
    </g>
  </g>
</svg>